<svg width="24" height="24" viewBox="0 0 24 24" fill="none" xmlns="http://www.w3.org/2000/svg">
<path d="M12 21.9329C10.0355 21.9329 8.11502 21.3503 6.48154 20.2589C4.84807 19.1674 3.57493 17.6161 2.82313 15.8011C2.07132 13.9861 1.87461 11.9889 2.25788 10.0621C2.64115 8.13525 3.58717 6.36536 4.97633 4.97621C6.36548 3.58705 8.13538 2.64103 10.0622 2.25776C11.989 1.87449 13.9862 2.0712 15.8012 2.823C17.6162 3.57481 19.1676 4.84795 20.259 6.48142C21.3505 8.11489 21.933 10.0353 21.933 11.9999C21.9301 14.6334 20.8827 17.1582 19.0205 19.0204C17.1583 20.8825 14.6335 21.93 12 21.9329ZM12 3.0669C10.2332 3.0669 8.50614 3.59081 7.03711 4.57238C5.56809 5.55395 4.42312 6.9491 3.74701 8.58139C3.07089 10.2137 2.89398 12.0098 3.23867 13.7426C3.58335 15.4755 4.43413 17.0672 5.68344 18.3165C6.93274 19.5658 8.52445 20.4166 10.2573 20.7613C11.9901 21.1059 13.7862 20.929 15.4185 20.2529C17.0508 19.5768 18.446 18.4318 19.4275 16.9628C20.4091 15.4938 20.933 13.7667 20.933 11.9999C20.9304 9.63153 19.9884 7.36093 18.3137 5.68624C16.639 4.01155 14.3684 3.06955 12 3.0669Z" fill="white"/>
<path d="M18 12.4999H12C11.9365 12.5032 11.8731 12.4923 11.8143 12.4681C11.7555 12.4439 11.7028 12.4069 11.66 12.3599C11.65 12.3599 11.65 12.3499 11.64 12.3399C11.593 12.2971 11.5561 12.2444 11.5318 12.1856C11.5076 12.1268 11.4968 12.0634 11.5 11.9999V5.9999C11.5 5.86729 11.5527 5.74011 11.6465 5.64635C11.7402 5.55258 11.8674 5.4999 12 5.4999C12.1326 5.4999 12.2598 5.55258 12.3536 5.64635C12.4473 5.74011 12.5 5.86729 12.5 5.9999V11.4999H18C18.1326 11.4999 18.2598 11.5526 18.3536 11.6463C18.4473 11.7401 18.5 11.8673 18.5 11.9999C18.5 12.1325 18.4473 12.2597 18.3536 12.3535C18.2598 12.4472 18.1326 12.4999 18 12.4999Z" fill="white"/>
</svg>
