<svg width="200" height="200" viewBox="0 0 200 200" fill="none" xmlns="http://www.w3.org/2000/svg">
<path d="M151.5 55C151.5 69.3594 139.859 81 125.5 81C111.141 81 99.5 69.3594 99.5 55C99.5 40.6406 111.141 29 125.5 29C139.859 29 151.5 40.6406 151.5 55Z" fill="#000"/>
<path d="M63.5 79.5C63.5 89.7173 55.2173 98 45 98C34.7827 98 26.5 89.7173 26.5 79.5C26.5 69.2827 34.7827 61 45 61C55.2173 61 63.5 69.2827 63.5 79.5Z" fill="#000"/>
<path d="M82.6297 86.1155C82.5606 85.5214 83.025 85 83.623 85H167.61C168.117 85 168.544 85.3803 168.603 85.8845L178.37 169.885C178.439 170.479 177.975 171 177.377 171H93.3905C92.8829 171 92.4558 170.62 92.3972 170.116L82.6297 86.1155Z" fill="#000"/>
<path d="M14.6482 102.13C14.5697 101.531 15.0358 101 15.6397 101H74.6226C75.1246 101 75.5488 101.372 75.6141 101.87L83.3518 160.87C83.4303 161.469 82.9642 162 82.3603 162H23.3774C22.8754 162 22.4512 161.628 22.3859 161.13L14.6482 102.13Z" fill="#000"/>
</svg>
